# xmcd
#
# Track frame offsets:
#	150
#	10210
#	23370
#	38152
#	54710
#	68187
#	80274
#	95399
#	109099
#	120566
#	133503
#	143573
#	155043
#	171593
#	180122
#	189436
#	199958
#	210934
#	221362
#	231854
#	243909
#	256507
#	268806
#	278887
#	291366
#	304685
#	317493
#	332016
#	347341
#
# Disc length: 4797 seconds
#
# Revision: 1
# Processed by: cddbd v1.5.2PL0 Copyright (c) Steve Scherf et al.
# Submitted via: audiograbber 1.83.01
#
DISCID=9012bb1d
DTITLE=Frank Sinatra - Star Mark Greatest Hits Cd2
DYEAR=1900
DGENRE=Blues
TTITLE0=A Fine Romance
TTITLE1=I ve Got My Love to Keep Me Warm
TTITLE2=I Get a kick Out of You
TTITLE3=Night and Day
TTITLE4=Come Fly With Me(live)
TTITLE5=Day by Day
TTITLE6=Wave
TTITLE7=Desafinado
TTITLE8=Forget Domani
TTITLE9=Softly As I Leave You
TTITLE10=Let S Fall in Love
TTITLE11=Fly me to The Moon
TTITLE12=Lady Day
TTITLE13=I m Goona Live Till I Die
TTITLE14=Almost Like Being in Love
TTITLE15=We Wish You the Merriest
TTITLE16=You d be so easy to love
TTITLE17=I love you
TTITLE18=It s only a paper Moon
TTITLE19=Ol Macdonald
TTITLE20=Not As A Stranger
TTITLE21=Don t Chande your Mind About Me
TTITLE22=Chicago
TTITLE23=Nice N Easy
TTITLE24=(Love Is) The Tender Trap
TTITLE25=It s Always You
TTITLE26=Cycles
TTITLE27=Gentle on My Mind
TTITLE28=Goin Out Of My Heand
EXTD=
EXTT0=
EXTT1=
EXTT2=
EXTT3=
EXTT4=
EXTT5=
EXTT6=
EXTT7=
EXTT8=
EXTT9=
EXTT10=
EXTT11=
EXTT12=
EXTT13=
EXTT14=
EXTT15=
EXTT16=
EXTT17=
EXTT18=
EXTT19=
EXTT20=
EXTT21=
EXTT22=
EXTT23=
EXTT24=
EXTT25=
EXTT26=
EXTT27=
EXTT28=
PLAYORDER=
